<svg xmlns="http://www.w3.org/2000/svg" data-name="Layer 1" viewBox="0 0 512 512"><g data-name="&lt;Group&gt;"><g data-name="&lt;Group&gt;"><path fill="#00efd1" d="M484.99,139.5V376.8a39.745,39.745,0,0,1-2.31,13.42l-.05-.02L330.37,233.1Z" data-name="&lt;Group&gt;"/><path fill="#00acea" d="M330.37,233.1l-29.86,18.07a86,86,0,0,1-89.06,0l-26.48-16.03L27.01,139.52V135.2a40,40,0,0,1,40-40H444.99a40,40,0,0,1,40,40v4.3Z" data-name="&lt;Group&gt;"/><path fill="#00acea" d="M482.63,390.2l.05.02a40,40,0,0,1-37.69,26.58H67.01a40.02,40.02,0,0,1-37.7-26.59l.02-.01L184.9,235.25l.07-.11,26.48,16.03a85.979,85.979,0,0,0,89.06,0l29.86-18.07Z" data-name="&lt;Group&gt;"/><path fill="#00efd1" d="M184.97,235.14l-.07.11L29.33,390.2l-.02.01a39.972,39.972,0,0,1-2.3-13.41V139.52Z" data-name="&lt;Group&gt;"/></g><g data-name="&lt;Group&gt;"><path fill="#083863" d="M444.99,85H67.01A50.236,50.236,0,0,0,17,135.2V376.8A50.089,50.089,0,0,0,67.01,427H444.99A50.109,50.109,0,0,0,495,376.8V135.2A50.236,50.236,0,0,0,444.99,85Zm-98.7,150.151L475,157.243V367.949ZM67.01,105H444.99a30.12,30.12,0,0,1,29.967,28.783L295.331,242.565a75.959,75.959,0,0,1-78.7.044L37.042,133.8A30.118,30.118,0,0,1,67.01,105ZM37,368.437V157.266l131.871,79.825ZM444.99,407H67.01a30.172,30.172,0,0,1-25.651-14.567l145.15-144.621,19.755,11.933a96.026,96.026,0,0,0,99.423-.016l23.043-13.951L470.689,392.349A30.151,30.151,0,0,1,444.99,407Z" data-name="&lt;Compound Path&gt;"/><path fill="#083863" d="M288 314h55a10 10 0 0 0 0-20H288a10 10 0 0 0 0 20zM383 324H288a10 10 0 0 0 0 20h95a10 10 0 0 0 0-20zM383 354H288a10 10 0 0 0 0 20h95a10 10 0 0 0 0-20z" data-name="&lt;Path&gt;"/></g></g></svg>