<svg xmlns="http://www.w3.org/2000/svg" width="32" height="32" viewBox="0 0 32 32"><g transform="translate(0 -1020.362)"><path fill="#f05542" style="line-height:normal;text-indent:0;text-align:start;text-decoration-line:none;text-decoration-style:solid;text-decoration-color:#000;text-transform:none;block-progression:tb;isolation:auto;mix-blend-mode:normal" d="M1.4960938 1036.3555a.50004997.50004997 0 0 0-.4824219.5156c.1418706 7.9343 6.5556887 14.3393 14.4902341 14.4687a.50007724.50007724 0 1 0 .01758-1C8.1152146 1050.219 2.1460968 1044.2596 2.0136719 1036.8535a.50004997.50004997 0 0 0-.5175781-.498zM12.101562 1044.3984a.50004997.50004997 0 0 0-.279296.918c1.08906.7367 2.38781 1.1012 3.701172 1.0391a.50004997.50004997 0 1 0-.04688-.9981c-1.097889.052-2.183361-.2533-3.09375-.8691a.50004997.50004997 0 0 0-.28125-.09z" color="#000" font-family="sans-serif" font-weight="400" overflow="visible" white-space="normal"/><path fill="#f05542" fill-rule="evenodd" style="line-height:normal;text-indent:0;text-align:start;text-decoration-line:none;text-decoration-style:solid;text-decoration-color:#000;text-transform:none;block-progression:tb;isolation:auto;mix-blend-mode:normal" d="M15.503906 1045.3516a.50005.50005 0 0 0-.492187.5078l0 4.9824a.50005.50005 0 1 0 1 0l0-4.9824a.50005.50005 0 0 0-.507813-.5078zM12.025391 1044.3672a.50005.50005 0 0 0-.429688.2754l-.01953.041a.50005.50005 0 0 0-.002 0l-.957031 1.8555a.50005.50005 0 1 0 .888671.457l.957032-1.8535.02148-.041a.50005.50005 0 0 0-.458984-.7363z" color="#000" font-family="sans-serif" font-weight="400" overflow="visible" white-space="normal"/><path fill="#f05542" style="line-height:normal;text-indent:0;text-align:start;text-decoration-line:none;text-decoration-style:solid;text-decoration-color:#000;text-transform:none;block-progression:tb;isolation:auto;mix-blend-mode:normal" d="M7.9941406 1040.2715a.50004997.50004997 0 0 1-.9179687.2793c-.7388844-1.0923-1.103844-2.3957-1.0390625-3.7129a.50004997.50004997 0 1 1 .9980468.049c-.054153 1.1011.2514776 2.1904.8691407 3.1035a.50004997.50004997 0 0 1 .089844.2813zM11.544922 1046.791a.50004994.50004994 0 0 1-.716797.4238c-2.5024799-1.1689-4.5100249-3.1868-5.6660156-5.6953a.50028714.50028714 0 1 1 .9082031-.4199c1.0571347 2.294 2.8931632 4.14 5.1816405 5.209a.50004994.50004994 0 0 1 .292969.4824z" color="#000" font-family="sans-serif" font-weight="400" overflow="visible" white-space="normal"/><path fill="#f05542" fill-rule="evenodd" style="line-height:normal;text-indent:0;text-align:start;text-decoration-line:none;text-decoration-style:solid;text-decoration-color:#000;text-transform:none;block-progression:tb;isolation:auto;mix-blend-mode:normal" d="M1.4902344 1036.3633a.50059569.50059569 0 0 0 .048828 1l4.9179687 0a.50005.50005 0 1 0 0-1l-4.9179687 0a.50005.50005 0 0 0-.048828 0zM7.5214844 1039.8281a.50005.50005 0 0 0-.2246094.059l-1.9140625.9805a.5000661.5000661 0 1 0 .4550781.8906l1.9140625-.9805a.50005.50005 0 0 0-.2304687-.9492z" color="#000" font-family="sans-serif" font-weight="400" overflow="visible" white-space="normal"/><path fill="#f05542" style="line-height:125%;-inkscape-font-specification:'Bebas Neue Bold'" d="M17.98796 1029.9715c0 2.4423-2.63579 2.8534-2.63579 5.3441l0 1.0398 3.84487 0 0-1.209-2.51488 0c-.0121-.06-.0121-.1209-.0121-.1814 0-1.3904 2.64788-2.3819 2.64788-5.0419 0-1.3541-.67708-2.1279-1.98289-2.1279-1.30581 0-1.98289.7738-1.98289 2.1279l0 .8222 1.25744 0 0-.9068c0-.6045.266-.8343.68918-.8343.42318 0 .68917.2056.68917.9673zM19.83162 1034.8199l2.56325 0 0 1.5355 1.3058 0 0-1.5355.62872 0 0-1.2091-.62872 0 0-5.7189-1.45089 0-2.41816 5.7189 0 1.2091zm1.22117-1.2091l1.34208-3.1799 0 3.1799-1.34208 0z" font-family="Bebas Neue" font-size="12.091" font-weight="700" letter-spacing="0" word-spacing="0"/><path fill="#2b4255" style="line-height:normal;text-indent:0;text-align:start;text-decoration-line:none;text-decoration-style:solid;text-decoration-color:#000;text-transform:none;block-progression:tb;isolation:auto;mix-blend-mode:normal" d="m 16.835938,1021.3867 c -7.5964432,-0.4242 -14.3135583,4.9202 -15.6054692,12.418 a 0.5004271,0.5004271 0 1 0 0.9863281,0.1699 c 1.2070444,-7.0052 7.4650721,-11.9862 14.5625001,-11.5898 7.097424,0.3963 12.762124,6.0425 13.181641,13.1386 0.41955,7.0962 -4.539711,13.3717 -11.541016,14.6016 a 0.50004997,0.50004997 0 1 0 0.171875,0.9844 c 7.493561,-1.3164 12.818189,-8.0495 12.369141,-15.6446 -0.449013,-7.595 -6.528562,-13.6538 -14.125,-14.0781 z" color="#000" font-family="sans-serif" font-weight="400" overflow="visible" white-space="normal"/><path fill="#2b4255" style="line-height:normal;text-indent:0;text-align:start;text-decoration-line:none;text-decoration-style:solid;text-decoration-color:#000;text-transform:none;block-progression:tb;isolation:auto;mix-blend-mode:normal" d="m 10.517578,1040.3574 a 0.50005,0.50005 0 1 0 0,1 c 0.282027,0 0.499986,0.218 0.5,0.5 a 0.50005,0.50005 0 1 0 1,0 c -4.1e-5,-0.8224 -0.677551,-1.5 -1.5,-1.5 z" color="#000" font-family="sans-serif" font-weight="400" opacity=".97" overflow="visible" white-space="normal"/><path fill="#2b4255" style="line-height:normal;text-indent:0;text-align:start;text-decoration-line:none;text-decoration-style:solid;text-decoration-color:#000;text-transform:none;block-progression:tb;isolation:auto;mix-blend-mode:normal" d="m 10.523438,1038.3574 a 0.50005,0.50005 0 1 0 0,1 c 1.384024,0 2.49417,1.1121 2.49414,2.4961 a 0.50005,0.50005 0 1 0 1,0 c 4.2e-5,-1.9245 -1.569669,-3.4961 -3.49414,-3.4961 z" color="#000" font-family="sans-serif" font-weight="400" opacity=".97" overflow="visible" white-space="normal"/><path fill="#2b4255" style="line-height:normal;text-indent:0;text-align:start;text-decoration-line:none;text-decoration-style:solid;text-decoration-color:#000;text-transform:none;block-progression:tb;isolation:auto;mix-blend-mode:normal" d="m 10.525391,1036.3555 a 0.50005,0.50005 0 1 0 0,1 c 2.488392,0 4.494126,2.0077 4.49414,4.4961 a 0.50005,0.50005 0 1 0 1,0 c -1.7e-5,-3.0289 -2.46531,-5.4961 -5.49414,-5.4961 z" color="#000" font-family="sans-serif" font-weight="400" opacity=".97" overflow="visible" white-space="normal"/><path fill="#f05542" fill-rule="evenodd" style="line-height:normal;text-indent:0;text-align:start;text-decoration-line:none;text-decoration-style:solid;text-decoration-color:#000;text-transform:none;block-progression:tb;isolation:auto;mix-blend-mode:normal" d="m 25.28448,1034.8604 0,1 1.5625,0 -1.45117,3.6172 0.92968,0.3731 1.72461,-4.3047 a 0.50005,0.50005 0 0 0 -0.46484,-0.6856 l -2.30078,0 z" color="#000" font-family="sans-serif" font-weight="400" overflow="visible" white-space="normal"/></g></svg>